<?xml version="1.0" encoding="utf-8"?>
<svg viewBox="0 0 50 50" xmlns="http://www.w3.org/2000/svg" xmlns:xlink="http://www.w3.org/1999/xlink">
	<style>:root>svg{display:none}:root>svg:target{display:block}</style>
	<svg viewBox="0 0 50 50" id="ant-design_shop-twotone" xmlns="http://www.w3.org/2000/svg">
		<path fill="#00a0c1" d="M 48.125002,10.189219 V 2.2806146 C 48.125002,1.1878511 47.231252,0.305 46.125001,0.305 H 3.8750314 c -1.1062396,0 -1.9999897,0.8828511 -1.9999897,1.9756146 V 10.189219 C 0.83128857,10.250959 3.8724585e-5,11.109167 3.8724585e-5,12.158646 V 20.28948 C -0.0039638,21.783855 0.30234688,23.263126 0.90003857,24.635834 1.1687917,25.265626 1.5000417,25.85823 1.8750417,26.420105 v 21.29948 c 0,1.086667 0.8937501,1.975625 1.9999897,1.975625 H 46.125001 c 1.106251,0 2.000001,-0.882813 2.000001,-1.975625 v -21.29948 c 0.380937,-0.563229 0.707291,-1.160625 0.975,-1.784271 0.59375,-1.376667 0.9,-2.839896 0.9,-4.346354 v -8.130834 c 0,-1.049479 -0.83125,-1.907687 -1.875,-1.969427 z M 6.3750315,4.7501251 H 43.625001 V 10.183052 H 6.3750315 Z M 29.000001,45.256251 h -8 v -6.426875 h 8 z m 14.65,0 h -10.65 v -8.4025 c 0,-1.092708 -0.89375,-1.975625 -2,-1.975625 h -12 c -1.10625,0 -2,0.882917 -2,1.975625 v 8.4025 H 6.3750315 V 30.303438 c 0.18125,0.08636 0.36875,0.172813 0.5625,0.246875 1.39375,0.580417 2.8750001,0.870521 4.3999685,0.870521 1.525,0 3,-0.290104 4.400001,-0.870521 0.8625,-0.35802 1.675,-0.814895 2.41875,-1.364375 0.0125,-0.0061 0.025,-0.0061 0.0375,0 0.746041,0.551771 1.558541,1.010105 2.41875,1.364375 1.39375,0.580417 2.875,0.870521 4.4,0.870521 1.525,0 3,-0.290104 4.4,-0.870521 0.8625,-0.35802 1.675,-0.814895 2.41875,-1.364375 0.0125,-0.0061 0.025,-0.0061 0.0375,0 0.746042,0.551771 1.558542,1.010105 2.41875,1.364375 1.39375,0.580417 2.875,0.870521 4.4,0.870521 1.525,0 3,-0.290104 4.4,-0.870521 0.1875,-0.08021 0.375,-0.16052 0.5625,-0.246875 z m 1.85,-24.966771 c 0,3.691979 -3.0625,6.68625 -6.83125,6.68625 -2.55,0 -4.775,-1.364375 -5.95,-3.389375 -0.18125,-0.30875 -0.50625,-0.500104 -0.86875,-0.500104 h -0.0375 c -0.35625,0 -0.6875,0.191354 -0.86875,0.500104 -0.599583,1.032917 -1.465417,1.890729 -2.509375,2.486042 -1.043958,0.595312 -2.228958,0.906979 -3.434375,0.903333 -2.54375,0 -4.7625,-1.358229 -5.9375,-3.377083 -0.1875,-0.314792 -0.525,-0.512396 -0.89375,-0.512396 -0.36875,0 -0.7125,0.197604 -0.89375,0.512396 -0.603125,1.029062 -1.47,1.882916 -2.513438,2.475833 -1.043438,0.592813 -2.226563,0.903646 -3.430313,0.90125 -3.7687185,0 -6.8312186,-2.994271 -6.8312186,-6.68625 v -5.630417 c 0,-0.01854 0.0125,-0.03094 0.03125,-0.03094 H 45.468751 c 0.01875,0 0.03125,0.0124 0.03125,0.03094 z" />
		<path opacity="0.15" d="M 45.469064,14.627917 H 4.5315731 c -0.01875,0 -0.03125,0.0124 -0.03125,0.03083 v 5.630521 c 0,3.691876 3.0625001,6.686251 6.8312399,6.686251 2.54375,0 4.7625,-1.35823 5.94375,-3.377084 0.18125,-0.314896 0.525,-0.512396 0.89375,-0.512396 0.36875,0 0.70625,0.1975 0.89375,0.512396 1.175,2.018854 3.39375,3.377084 5.9375,3.377084 2.55,0 4.775,-1.36448 5.94375,-3.38948 0.18125,-0.308645 0.512501,-0.5 0.868751,-0.5 h 0.0375 c 0.3625,0 0.6875,0.191355 0.86875,0.5 1.175,2.025 3.4,3.38948 5.95,3.38948 3.76875,0 6.83125,-2.994375 6.83125,-6.686251 V 14.65875 c 0,-0.01844 -0.0125,-0.03083 -0.03125,-0.03083 z" />
	</svg>
	<svg viewBox="0 0 50 50" id="carbon_notebook" xmlns="http://www.w3.org/2000/svg">
		<path d="M 3.5722656 5.2578125 C 2.6253468 5.2587628 1.7164527 5.6375813 1.046875 6.3105469 C 0.37731186 6.9835061 0.00094549175 7.8959365 0 8.8476562 L 0 41.152344 C 0.00094549175 42.104085 0.37731186 43.016515 1.046875 43.689453 C 1.7164527 44.362391 2.6253468 44.74125 3.5722656 44.742188 L 46.427734 44.742188 C 47.374465 44.740788 48.283631 44.362287 48.953125 43.689453 C 49.622619 43.016619 49.998645 42.103876 50 41.152344 L 50 8.8476562 C 49.999062 7.8959365 49.622723 6.9835061 48.953125 6.3105469 C 48.283631 5.6375813 47.374674 5.2587628 46.427734 5.2578125 L 3.5722656 5.2578125 z M 3.5722656 8.8476562 L 23.214844 8.8476562 L 23.214844 41.152344 L 3.5722656 41.152344 L 3.5722656 8.8476562 z M 26.785156 8.8476562 L 46.427734 8.8476562 L 46.431641 41.152344 L 26.785156 41.152344 L 26.785156 8.8476562 z M 30.357422 14.230469 L 30.357422 17.820312 L 42.857422 17.820312 L 42.857422 14.230469 L 30.357422 14.230469 z M 30.357422 23.205078 L 30.357422 26.794922 L 42.857422 26.794922 L 42.857422 23.205078 L 30.357422 23.205078 z M 30.357422 32.177734 L 30.357422 35.767578 L 42.857422 35.767578 L 42.857422 32.177734 L 30.357422 32.177734 z " />
	</svg>
	<svg viewBox="0 0 50 50" id="clarity_users-line" xmlns="http://www.w3.org/2000/svg">
		<path d="m 38.167215,32.106012 c -3.333374,-3.65444 -8.000077,-5.813817 -13.000192,-5.647686 -5.000009,-0.166131 -9.833365,1.993246 -13.16674,5.647686 l -0.333306,0.498285 v 12.624308 c 0,1.494961 1.166676,2.823895 2.833311,2.823895 h 21.333576 c 1.499982,0 2.833311,-1.328934 2.833311,-2.823895 V 32.604297 C 38.48072,32.404126 38.330773,32.269022 38.167215,32.106012 Z M 35.167147,44.73032 H 15.000351 V 33.767103 c 2.666658,-2.657766 6.333339,-3.986597 10.166672,-3.986597 3.666786,-0.16613 7.333466,1.328831 10.000124,3.986597 z M 12.166204,16.658122 c 0.333411,0 0.650144,-0.03315 1.000023,-0.166129 v -0.996571 c 0,-0.830545 0,-1.66109 0.166653,-2.32561 -0.333306,0.16613 -0.833265,0.16613 -1.166676,0.16613 -2.1666456,0 -3.9999965,-1.827178 -3.9999965,-3.986596 0,-2.1594173 1.8333509,-3.9866167 3.9999965,-3.9866167 1.66674,0 3.166722,0.9966542 3.833438,2.4916355 C 16.666255,7.0238197 17.666277,6.1932745 18.499647,5.5288384 16.332949,2.0405538 11.832898,0.87779169 8.332871,3.0372028 4.8328435,5.1966203 3.6661572,9.681564 5.8328454,13.169812 c 1.3333498,2.15948 3.6667015,3.48831 6.3333586,3.48831 z m 2.833938,5.481453 C 14.333426,21.142899 13.833467,19.980095 13.50016,18.651264 H 12.166832 C 7.8334033,18.485134 3.6667009,19.980095 0.5000045,22.63786 L 0,23.13625 V 36.424972 H 3.3333634 V 24.46508 c 2.6666892,-1.82722 5.6667262,-2.823895 8.8334686,-2.657765 0.999918,0 1.999941,0.166129 2.83331,0.33226 z m 34.499794,0.497971 C 46.333214,19.813651 42.166575,18.31869 37.833177,18.484821 h -1.333328 c -0.333307,1.32883 -0.83337,2.491634 -1.499982,3.48831 0.999918,-0.16613 1.833288,-0.16613 2.83331,-0.16613 3.166722,-0.16613 6.333443,0.830545 8.833448,2.657765 V 36.424554 H 50 V 23.135832 Z M 34.00068,7.8537166 c 0.833265,-1.9933084 3.166617,-2.9899626 5.333316,-2.1594175 2.000045,0.8305452 3.000068,3.1560719 2.166698,5.3154789 -0.666612,1.494991 -2.166698,2.491667 -3.66668,2.491667 -0.333306,0 -0.83337,0 -1.166676,-0.166131 0.166653,0.830546 0.166653,1.661091 0.166653,2.325507 v 0.996674 c 0.364556,0.117187 0.666717,0.16613 1.000023,0.16613 4.166744,0 7.500119,-3.32218 7.500119,-7.308818 0,-4.1527259 -3.333375,-7.4749056 -7.333466,-7.4749056 -2.666658,0 -5.00001,1.3288713 -6.333338,3.6543977 0.833265,0.4983272 1.666635,1.1627633 2.333351,2.1594175 z M 24.833508,23.634744 c 4.500051,0 8.000078,-3.65444 8.000078,-8.139426 0,-4.484892 -3.66668,-7.9731817 -8.166731,-7.9731817 -4.50005,0 -8.000078,3.6543987 -8.000078,7.9731817 0,4.484986 3.666681,8.139426 8.166731,8.139426 z M 24.666855,10.844317 c 0.166653,0 0.166653,0 0,0 2.666658,0 4.833357,2.15947 4.833357,4.817131 0,2.657765 -2.166699,4.651116 -4.833357,4.651116 -2.666658,0 -4.666703,-2.159481 -4.666703,-4.651116 0,-2.657661 2.166699,-4.817131 4.666703,-4.817131 z" />
	</svg>
	<svg viewBox="0 0 50 50" id="fa-solid_award" xmlns="http://www.w3.org/2000/svg">
		<path d="m 15.775737,35.413201 c -0.844839,-0.848629 -0.40443,-0.609363 -2.442173,-1.157269 -0.924566,-0.248953 -1.737332,-0.727485 -2.472319,-1.300703 L 6.4503567,43.818244 c -0.426798,1.051751 0.37041,2.194332 1.500109,2.151312 l 5.1225503,-0.196246 3.523268,3.73826 c 0.777715,0.82415 2.142689,0.56728 2.569557,-0.484366 l 5.060322,-12.462671 c -1.053939,0.58978 -2.2235,0.935502 -3.432853,0.935502 -1.895798,0 -3.67691,-0.741235 -5.017573,-2.086834 z M 43.549656,43.818244 39.1388,32.955229 c -0.734985,0.574155 -1.547783,1.05175 -2.472349,1.300703 -2.048399,0.550823 -1.599241,0.310619 -2.442141,1.157269 -1.340705,1.345599 -3.122754,2.086834 -5.018552,2.086834 -1.209458,0 -2.379019,-0.346659 -3.432854,-0.935502 l 5.060323,12.462671 c 0.426763,1.051646 1.792779,1.308516 2.569535,0.484366 l 3.524205,-3.73826 5.122612,0.196246 c 1.129667,0.04302 1.92684,-1.100499 1.500077,-2.151312 z M 31.902686,33.203245 c 1.485493,-1.518512 1.655594,-1.387681 3.771179,-1.966732 1.350392,-0.370097 2.406205,-1.449243 2.767866,-2.830049 0.727174,-2.773383 0.538531,-2.438389 2.522869,-4.467724 0.988731,-1.01071 1.374662,-2.484327 1.013002,-3.865133 -0.726236,-2.771404 -0.727174,-2.384745 0,-5.159065 C 42.339262,13.533736 41.953332,12.060119 40.9646,11.04941 38.980262,9.0201365 39.168905,9.3541195 38.441731,6.5817165 38.08007,5.2008785 37.024257,4.1217955 35.673865,3.7516885 32.963291,3.0085365 33.289952,3.2028765 31.303739,1.1726345 30.315008,0.16191754 28.873263,-0.23358246 27.522872,0.13652754 c -2.709533,0.742173 -2.33131,0.743149 -5.045739,0 -1.350391,-0.37011 -2.792136,0.02441 -3.780867,1.03610696 -1.984297,2.029263 -1.657677,1.835902 -4.369106,2.579054 -1.350392,0.370107 -2.406205,1.44919 -2.767865,2.830028 -0.726237,2.772403 -0.538605,2.43842 -2.5228803,4.4676935 -0.988732,1.010709 -1.375662,2.484326 -1.013033,3.865132 0.726236,2.769529 0.727205,2.382766 0,5.158128 -0.36166,1.380806 0.0243,2.854423 1.013033,3.86607 1.9842753,2.029335 1.7956643,1.694341 2.5228803,4.467724 0.36166,1.380806 1.417473,2.459952 2.767865,2.830049 2.175793,0.595717 2.338144,0.501969 3.770159,1.966732 1.286226,1.315391 3.289938,1.550803 4.835742,0.568322 0.618218,-0.394159 1.335289,-0.603426 2.067462,-0.603426 0.732174,0 1.449244,0.209267 2.067358,0.603426 1.544866,0.982481 3.548579,0.747069 4.834805,-0.568322 z M 15.828236,17.184081 c 0,-5.178648 4.106548,-9.3768055 9.171766,-9.3768055 5.065218,0 9.171809,4.1981575 9.171809,9.3768055 0,5.178544 -4.106591,9.37669 -9.171809,9.37669 -5.065218,0 -9.171766,-4.198146 -9.171766,-9.37669 z" />
	</svg>
	<svg viewBox="0 0 50 50" id="bxs-star" xmlns="http://www.w3.org/2000/svg">
		<path d="M 49.86788,17.950061 C 49.710613,17.487263 49.421427,17.080632 49.035755,16.780366 48.650083,16.480074 48.185096,16.299255 47.697759,16.260284 L 33.445334,15.127925 27.277578,1.4772095 C 27.081335,1.0375487 26.761896,0.6641381 26.357689,0.4019986 25.953756,0.1398862 25.4825,2.4559991e-4 25.000887,3.9991372e-7 24.519273,-2.7220009e-4 24.048017,0.1388234 23.643811,0.4005269 23.239332,0.6622032 22.91962,1.0352868 22.722559,1.4747296 L 16.555131,15.127925 2.3025698,16.260284 c -0.4788603,0.03791 -0.9366518,0.212977 -1.31861706,0.504249 -0.38196532,0.291272 -0.67188711,0.686375 -0.83515044,1.138109 -0.16326334,0.451706 -0.19289057,0.940885 -0.08536563,1.408997 0.10752484,0.468112 0.34762274,0.895346 0.6916477,1.230576 L 11.287612,30.808335 7.5625924,46.936227 c -0.113085,0.488089 -0.076834,0.999069 0.1040634,1.466445 0.1808979,0.467376 0.4981025,0.869347 0.9104584,1.154406 0.4123561,0.284786 0.9007826,0.439034 1.4019659,0.442849 0.5011549,0.0038 0.9918999,-0.143074 1.4085349,-0.421592 l 13.612454,-9.073643 13.612727,9.073643 c 0.425738,0.282878 0.928065,0.428405 1.439116,0.416959 0.511049,-0.01117 1.00629,-0.178502 1.419218,-0.479639 0.4132,-0.301138 0.724192,-0.721368 0.890998,-1.204551 0.167079,-0.48291 0.18207,-1.005608 0.04307,-1.497239 L 37.83273,30.815966 49.172853,20.612199 c 0.742452,-0.669916 1.015012,-1.714767 0.695027,-2.662138 z" />
	</svg>
	<svg viewBox="0 0 50 50" id="star" xmlns="http://www.w3.org/2000/svg">
		<path d="M 11.290124,30.805157 7.5650994,46.93208 c -0.1153473,0.488331 -0.080705,1.000098 0.099376,1.468536 0.1800805,0.468438 0.4972314,0.871475 0.9100508,1.156789 0.4128194,0.285314 0.9021185,0.439553 1.4039835,0.442551 0.5018383,0.003 0.9929363,-0.145519 1.4091083,-0.425928 l 13.612549,-9.073097 13.612739,9.073097 c 0.425738,0.282862 0.927793,0.42838 1.438843,0.417207 0.511051,-0.01117 1.006565,-0.178764 1.419493,-0.479883 0.413202,-0.300847 0.72392,-0.721324 0.890999,-1.204206 0.16708,-0.483153 0.18207,-1.005548 0.04307,-1.497422 L 37.832839,30.812788 49.172971,20.609716 c 0.363051,-0.326953 0.622528,-0.753207 0.745997,-1.225978 0.123471,-0.472799 0.105481,-0.971404 -0.05151,-1.434147 -0.156722,-0.46277 -0.445908,-0.869376 -0.83158,-1.169569 -0.385673,-0.300193 -0.850933,-0.48081 -1.337998,-0.519479 L 33.445166,15.125772 27.277678,1.4758777 C 27.081162,1.0363523 26.761449,0.6631277 26.357242,0.401241 25.953037,0.13935427 25.48178,0 25.000167,0 c -0.48156,0 -0.95287,0.13935427 -1.356995,0.401241 -0.404126,0.2618867 -0.723811,0.6351113 -0.92049,1.0746367 L 16.555166,15.125772 2.3025919,16.258063 c -0.478888,0.03791 -0.9366799,0.212964 -1.31864549,0.504219 -0.3819384,0.291254 -0.6718878,0.686334 -0.8351459,1.138013 -0.16325247,0.451707 -0.19289065,0.940855 -0.0853712,1.408939 0.1075168,0.468084 0.3476504,0.895265 0.6916484,1.230502 z m 7.132541,-10.812831 c 0.446235,-0.03515 0.874809,-0.189665 1.240775,-0.447374 0.365967,-0.257709 0.655835,-0.609106 0.839241,-1.017347 l 4.497486,-9.9505949 4.497513,9.9505949 c 0.183433,0.408241 0.473436,0.759638 0.839212,1.017347 0.366048,0.257709 0.794513,0.412221 1.240966,0.447374 l 9.929907,0.787352 -8.177618,7.35846 c -0.710019,0.640118 -0.992392,1.624955 -0.73237,2.544664 l 3.132533,10.960476 -9.340087,-6.226497 c -0.409931,-0.274958 -0.892634,-0.421839 -1.386241,-0.421839 -0.49377,0 -0.976337,0.146881 -1.386295,0.421839 l -9.760048,6.506361 2.625026,-11.362968 c 0.09624,-0.417752 0.08332,-0.853489 -0.03753,-1.264974 -0.120825,-0.411484 -0.345524,-0.784818 -0.652481,-1.084575 L 8.1976023,20.807174 Z" />
	</svg>
	<svg viewBox="0 0 50 50" id="people" xmlns="http://www.w3.org/2000/svg">
		<path d="m 28.968465,13.103292 c -0.779476,0.54219 -1.658779,0.923189 -2.586653,1.120764 -0.927706,0.197589 -1.885496,0.207824 -2.817404,0.03008 -0.93174,-0.177747 -1.818942,-0.539913 -2.609678,-1.065327 -0.790735,-0.525428 -1.469372,-1.203599 -1.99608,-1.994937 -0.526709,-0.791339 -0.891068,-1.6800156 -1.071736,-2.6141309 -0.180836,-0.9341321 -0.174281,-1.895022 0.01916,-2.8265743 0.193439,-0.931569 0.5699,-1.8151528 1.107364,-2.599208 0.537465,-0.7840383 1.225178,-1.4528338 2.022971,-1.967371 1.57542,-1.0438444 3.498394,-1.4195795 5.3491,-1.0450752 1.850538,0.3745093 3.478057,1.468784 4.526768,3.0436553 1.048712,1.5748546 1.433408,3.5021983 1.06972,5.3607169 -0.36352,1.8585202 -1.445676,3.4970572 -3.010004,4.5574072 z M 26.986333,4.1675553 C 26.597435,3.8868587 26.156103,3.6875318 25.688889,3.5814613 25.221507,3.4753908 24.737654,3.4647517 24.266238,3.5501513 23.794822,3.6355343 23.345255,3.8152517 22.944425,4.0785481 22.543596,4.3418612 22.199571,4.683391 21.933023,5.0828204 21.666476,5.4822329 21.482784,5.9313845 21.39287,6.4035003 c -0.08992,0.4721325 -0.0842,0.9575851 0.01664,1.4274584 0.101006,0.4698734 0.295119,0.9145736 0.571077,1.3075967 0.275792,0.393038 0.627547,0.726391 1.034427,0.9801956 0.786028,0.479062 1.726172,0.635394 2.624298,0.436422 C 26.53744,10.3562 27.324477,9.8172644 27.836228,9.0506254 28.348145,8.283988 28.54545,7.34876 28.387136,6.4397841 28.22882,5.5308082 27.726985,4.7181744 26.986333,4.1711465 Z m 9.321261,0.1074868 c 1.029889,-0.6950814 2.269352,-1.0080829 3.504612,-0.885135 1.235261,0.1229481 2.38918,0.6741573 3.262938,1.558719 0.622672,0.6296955 1.081819,1.403044 1.337107,2.2522152 0.255455,0.8491711 0.299151,1.7482328 0.127391,2.6183271 -0.171591,0.8700806 -0.553599,1.6846026 -1.112071,2.3721296 -0.55864,0.687529 -1.276773,1.227054 -2.09154,1.571246 -0.978629,0.410507 -2.057256,0.518635 -3.097396,0.310541 C 37.198327,13.865007 36.243731,13.350184 35.49686,12.594522 34.935531,12.028491 34.505794,11.34496 34.238575,10.592873 33.971355,9.8407854 33.873039,9.0387224 33.950852,8.2440955 34.028672,7.4494688 34.28059,6.6819203 34.688647,5.9963821 35.096703,5.310844 35.650638,4.724261 36.311124,4.2786334 Z m 1.71424,5.7684599 c 0.335285,0.334971 0.78939,0.522579 1.262655,0.521568 0.23428,-5e-4 0.466206,-0.04729 0.682335,-0.137701 0.216296,-0.09041 0.412762,-0.22268 0.578136,-0.389246 0.165205,-0.1665516 0.296295,-0.3641586 0.385536,-0.5815096 0.08907,-0.21735 0.134785,-0.450197 0.134282,-0.6852508 -5.04e-4,-0.2350547 -0.04706,-0.4677151 -0.137307,-0.6846783 -0.09008,-0.21698 -0.221843,-0.4140139 -0.38789,-0.5798723 -0.332595,-0.3354938 -0.781995,-0.5281945 -1.253579,-0.5374341 -0.235456,-4.7e-4 -0.468895,0.045895 -0.686368,0.1364197 -0.217641,0.090525 -0.415115,0.2234377 -0.581161,0.391016 -0.166046,0.1675951 -0.297303,0.3665342 -0.386208,0.585352 -0.08907,0.218801 -0.133778,0.4531138 -0.131929,0.6894162 0.0012,0.4771566 0.18823,0.9349406 0.521498,1.2755112 z M 7.8225633,41.135835 h 6.4641107 v 3.600766 H 7.8225633 C 6.6909635,44.726484 5.6095976,44.266357 4.8155014,43.45755 4.0183632,42.645709 3.5718878,41.551619 3.5726777,40.412175 V 33.927053 C 3.0918503,33.910866 2.6192579,33.797226 2.1834545,33.592705 1.7476511,33.388354 1.3576616,33.097339 1.0370316,32.737532 0.6963349,32.391382 0.4289639,31.979645 0.2509855,31.526936 0.07299035,31.074395 -0.01191657,30.590494 0.00134525,30.104063 V 22.286274 C 0.01206755,20.595149 0.6798984,18.979221 1.8584381,17.778909 3.0334149,16.593098 4.6226494,15.915806 6.2868904,15.905182 h 6.5712516 c -0.886363,1.059019 -1.554042,2.284117 -1.964233,3.604307 H 6.2868904 C 5.5620528,19.530399 4.8723906,19.82765 4.3583709,20.340722 3.85346,20.861547 3.5715013,21.559747 3.5726777,22.286274 v 7.997019 h 3.5713325 v 10.125172 c -0.00828,0.09761 0.00328,0.195921 0.033965,0.288992 0.030706,0.0929 0.079897,0.178724 0.1446012,0.252067 0.1435592,0.111281 0.31863,0.174004 0.4999865,0.179229 z M 33.893206,17.782619 C 33.308852,17.19064 32.613744,16.720227 31.847547,16.398695 31.081516,16.077161 30.259522,15.910579 29.429125,15.908724 H 20.57222 c -1.664829,0.01332 -3.256887,0.686903 -4.428452,1.873895 -1.17854,1.200143 -1.846371,2.81607 -1.857094,4.507196 v 11.386519 c -0.0051,0.977583 0.365924,1.919588 1.035771,2.62976 0.321,0.35947 0.711074,0.649979 1.146692,0.854332 0.435787,0.20452 0.908211,0.318497 1.38887,0.335189 v 8.323104 c -0.0034,0.568036 0.105375,1.131183 0.319824,1.656898 0.214615,0.525884 0.530742,1.003716 0.930226,1.406518 0.64284,0.601926 1.453406,0.992419 2.321283,1.117862 h 7.142664 c 1.004511,-0.132356 1.924823,-0.632444 2.584133,-1.404326 0.659142,-0.771712 1.010729,-1.760759 0.9872,-2.776952 v -8.326645 c 0.480827,-0.01619 0.95342,-0.129827 1.389207,-0.334347 0.435786,-0.204351 0.825859,-0.495367 1.146523,-0.855174 0.340328,-0.345643 0.607546,-0.756875 0.785525,-1.208741 0.177979,-0.452034 0.263019,-0.93543 0.250078,-1.421187 V 22.286274 c 0.0025,-1.683369 -0.651243,-3.300983 -1.821464,-4.507365 z m -1.749869,16.069236 h -3.571333 v 11.966864 c -0.0035,0.18884 -0.08033,0.368912 -0.214279,0.501604 -0.061,0.07233 -0.137812,0.129491 -0.224701,0.166752 -0.08672,0.03743 -0.181003,0.05379 -0.275285,0.04823 h -5.749762 c -0.186718,-0.0088 -0.363352,-0.087 -0.495449,-0.219526 -0.132097,-0.13253 -0.210246,-0.309904 -0.218818,-0.497058 V 33.851855 H 17.858007 V 22.286274 c 0,-0.72737 0.282178,-1.426076 0.785694,-1.945552 0.514103,-0.513072 1.203664,-0.810326 1.928519,-0.831233 h 8.856905 c 0.540993,0.0096 1.067534,0.177375 1.514749,0.482891 0.447214,0.305514 0.795944,0.735462 1.002998,1.236898 0.135963,0.335359 0.202851,0.694997 0.196465,1.056996 z M 42.178866,44.73306 H 35.71467 v -3.600766 h 6.428398 c 0.181339,-0.0051 0.356461,-0.06778 0.499987,-0.179229 0.07193,-0.07048 0.128232,-0.155455 0.165038,-0.249201 0.03697,-0.09391 0.05378,-0.194571 0.04924,-0.295399 V 30.283293 h 3.571333 v -7.997019 c 0.0012,-0.726527 -0.280833,-1.424727 -0.785694,-1.945552 -0.514102,-0.513072 -1.203663,-0.810326 -1.928518,-0.831233 h -4.606935 c -0.410072,-1.32019 -1.077786,-2.545456 -1.964317,-3.604307 h 6.571252 c 1.664493,0.01517 3.255879,0.68859 4.428452,1.873727 1.178457,1.200312 1.846337,2.81624 1.857094,4.507365 v 7.817789 c 0,0.978256 -0.367889,1.916891 -1.032073,2.626388 -0.664353,0.712869 -1.571387,1.139275 -2.53926,1.193062 v 6.484952 c 0,1.142986 -0.446374,2.235726 -1.242824,3.045544 -0.794096,0.808807 -1.875412,1.268765 -3.006977,1.279051 z M 10.715342,3.3649872 C 9.652614,3.3637562 8.6137353,3.6809224 7.7318431,4.2758682 6.8499508,4.8707971 6.1652466,5.7163937 5.7654758,6.7042437 5.3620245,7.6917567 5.2572879,8.7765895 5.4643242,9.8234184 c 0.2070533,1.0468296 0.7167035,2.0093556 1.465406,2.7675296 0.7484337,0.75728 1.7048953,1.273553 2.7472028,1.482862 1.042308,0.209308 2.123153,0.102141 3.104471,-0.307808 0.981302,-0.409951 1.818522,-1.104055 2.404743,-1.993674 0.586202,-0.88962 0.894765,-1.9343586 0.886194,-3.0007462 0,-1.4331573 -0.564187,-2.8089885 -1.571386,-3.8229557 C 14.005052,4.447493 13.41532,4.0496148 12.765656,3.7778544 12.115994,3.5060772 11.419222,3.3657627 10.715342,3.3649872 Z m 0,7.2087828 c -0.23554,5e-4 -0.468828,-0.04588 -0.686384,-0.13642 C 9.811383,10.34683 9.613876,10.213929 9.447813,10.046333 9.281768,9.8787544 9.150477,9.6797984 9.0615384,9.4609974 8.9726154,9.2421964 8.9277941,9.0078664 8.9296764,8.7715818 8.9306007,8.2957399 9.118697,7.8395237 9.453074,7.5020572 9.787435,7.1645739 10.241069,6.9731547 10.715342,6.9693779 c 0.472828,0.00836 0.923807,0.201249 1.25721,0.5377375 0.333386,0.3364717 0.522961,0.7900576 0.528456,1.2644664 -9.24e-4,0.4758246 -0.18902,0.9320576 -0.523381,1.2695252 -0.334377,0.337466 -0.788012,0.528886 -1.262285,0.532663 z" />
	</svg>
	<svg viewBox="0 0 50 50" id="web" xmlns="http://www.w3.org/2000/svg">
		<path d="m 45.000697,23.727138 c -0.601045,0.0044 -1.196451,0.11906 -1.757497,0.33859 l -5.9951,-4.997062 c 0.147467,-0.544763 0.252428,-1.109892 0.252428,-1.705569 0,-3.528256 -2.784965,-6.364097 -6.250036,-6.364097 -3.46507,0 -6.25014,2.835841 -6.25014,6.364097 0,1.008064 0.250027,1.947408 0.655041,2.792558 l -7.272597,8.751856 c -0.291175,-0.05546 -0.586423,-0.08522 -0.882507,-0.08909 -0.447521,0 -0.870081,0.07645 -1.280002,0.188408 L 9.8126524,22.482332 c 0.1125015,-0.414936 0.1874986,-0.845119 0.1874986,-1.300786 0,-2.820568 -2.2300292,-5.091276 -5.0000805,-5.091276 C 2.2300296,16.09027 0,18.360978 0,21.181546 c 0,2.820579 2.2300296,5.091288 5.0000705,5.091288 0.4475098,0 0.870017,-0.07634 1.2800228,-0.188407 l 6.4075507,6.524501 c -0.120105,0.422871 -0.183186,0.860575 -0.187468,1.300785 0,2.820579 2.230082,5.091287 5.000113,5.091287 2.77003,0 5.000007,-2.270708 5.000007,-5.091287 0,-0.603344 -0.12,-1.170969 -0.307467,-1.708097 l 7.282621,-8.762103 c 0.567521,0.168043 1.15499,0.287625 1.775042,0.287625 0.986634,-0.0055 1.957706,-0.250758 2.832485,-0.715302 l 5.997608,4.997084 c -0.047,0.267363 -0.07373,0.537964 -0.08,0.809505 0,2.820579 2.230081,5.091288 5.000112,5.091288 2.77003,0 5.000008,-2.270709 5.000008,-5.091288 0,-2.820579 -2.229978,-5.091287 -5.000008,-5.091287 z" />
	</svg>
	<svg viewBox="0 0 50 50" id="icon-bag" xmlns="http://www.w3.org/2000/svg">
		<path d="M 44.792634,12.458009 H 39.417535 V 7.0829229 c 0,-0.9503877 -0.377559,-1.8618425 -1.049552,-2.5338583 C 37.695989,3.8770383 36.784483,3.4995 35.834171,3.4995 H 14.333668 c -0.950417,0 -1.861818,0.3775383 -2.533917,1.0495646 -0.671994,0.6720158 -1.049553,1.5834706 -1.049553,2.5338583 V 12.458009 H 5.3751204 c -1.4255739,0 -2.7927593,0.566393 -3.8007918,1.574385 C 0.56630662,15.040385 0,16.407594 0,17.833223 V 42.91713 c 0,0.950314 0.37753775,1.861822 1.0495524,2.533816 C 1.7215776,46.123047 2.633031,46.5005 3.5834065,46.5005 H 46.584369 c 0.950418,0 1.861819,-0.377453 2.533812,-1.049554 0.6721,-0.671994 1.049659,-1.583502 1.049659,-2.533816 V 17.833223 c 0,-1.425629 -0.566392,-2.792838 -1.574382,-3.800829 -1.00799,-1.007992 -2.375197,-1.574385 -3.800824,-1.574385 z M 14.333668,7.0829229 H 35.834171 V 12.458009 H 14.333668 Z M 46.584369,42.91713 H 3.5834065 V 26.791701 H 17.917033 v 8.958584 H 32.250701 V 26.791701 H 46.584369 Z M 21.500503,26.791701 h 7.166834 v 5.375108 H 21.500503 Z M 3.5834065,23.208331 v -5.375108 c 0,-0.475209 0.1887689,-0.93091 0.5247868,-1.267014 0.3360073,-0.335997 0.7917287,-0.524724 1.2669271,-0.524724 H 44.792634 c 0.475209,0 0.93091,0.188727 1.267012,0.524724 0.335997,0.336104 0.524723,0.791805 0.524723,1.267014 v 5.375108 z" />
	</svg>
	<svg viewBox="0 0 50 50" id="triangle" xmlns="http://www.w3.org/2000/svg">
		<path fill="#ffffff" d="M 4.167,0 V 50 L 45.833,24.999999 Z" />
	</svg>
	<svg viewBox="0 0 50 50" id="speed" xmlns="http://www.w3.org/2000/svg">
		<path d="m 45.944729,16.363575 -3.079943,4.632443 c 1.485344,2.962501 2.212529,6.247218 2.116373,9.559826 -0.09616,3.312608 -1.012728,6.549709 -2.667271,9.420986 H 7.6072601 C 5.456678,36.246004 4.5655487,31.9216 5.0659643,27.644503 c 0.500431,-4.277097 2.3657943,-8.279132 5.3195157,-11.41268 2.953738,-3.133549 6.838593,-5.231909 11.078734,-5.984007 4.240142,-0.7520819 8.609725,-0.117837 12.460925,1.808706 l 4.632627,-3.08 C 33.841156,5.952151 28.246653,4.5969202 22.669101,5.1276125 17.091395,5.6583047 11.852795,8.0442394 7.7912985,11.903797 3.7298019,15.763355 1.0800216,20.873511 0.26584078,26.416818 c -0.814187,5.54346 0.2542467,11.199719 3.03439952,16.064077 0.4369891,0.756921 1.0644579,1.38625 1.8200433,1.825578 0.7555853,0.439329 1.6129828,0.673247 2.4869765,0.678486 H 42.28877 c 0.882516,0.0035 1.750238,-0.226213 2.515331,-0.666004 0.765247,-0.439636 1.40059,-1.073743 1.841771,-1.83806 2.307145,-3.996642 3.465032,-8.55327 3.345761,-13.166451 -0.119272,-4.613335 -1.511078,-9.103855 -4.021786,-12.975987 z M 21.42985,33.491379 c 0.465066,0.465525 1.017351,0.834894 1.625419,1.086995 0.607914,0.252102 1.259591,0.381697 1.917741,0.381697 0.658149,0 1.309827,-0.129595 1.917895,-0.381697 0.607914,-0.252101 1.160353,-0.62147 1.625418,-1.086995 L 42.689424,12.231806 21.42985,26.404798 c -0.465682,0.465063 -0.835053,1.017498 -1.087156,1.625408 -0.251949,0.608064 -0.381699,1.259737 -0.381699,1.917882 0,0.658146 0.12975,1.309819 0.381699,1.917729 0.252103,0.608064 0.621474,1.160345 1.087156,1.625562 z" />
	</svg>
	<svg viewBox="0 0 25 25" id="facebook" xmlns="http://www.w3.org/2000/svg">
		<path fill="#335bf5" d="M 24.000001,0 H 1 C 0.44687501,0 0,0.44687501 0,1 v 23.000001 c 0,0.553125 0.44687501,1 1,1 h 23.000001 c 0.553125,0 1,-0.446875 1,-1 V 1 c 0,-0.55312499 -0.446875,-1 -1,-1 z m -2.8875,7.2968752 h -1.996875 c -1.565625,0 -1.86875,0.7437501 -1.86875,1.8375001 V 11.54375 h 3.7375 l -0.4875,3.771875 h -3.25 v 9.684376 H 13.35 V 15.31875 h -3.259375 v -3.775 H 13.35 V 8.7625003 c 0,-3.2281251 1.971875,-4.9875002 4.853126,-4.9875002 1.38125,0 2.565625,0.103125 2.9125,0.15 v 3.3718751 z" />
	</svg>
	<svg viewBox="0 0 25 25" id="instagram" xmlns="http://www.w3.org/2000/svg">
		<path fill="#e61f5a" d="m 12.496646,6.086172 c -3.549215,0 -6.4135956,2.8643806 -6.4135956,6.413596 0,3.549205 2.8643806,6.413586 6.4135956,6.413586 3.549205,0 6.413586,-2.864381 6.413586,-6.413586 0,-3.5492154 -2.864381,-6.413596 -6.413586,-6.413596 z m 0,10.581958 c -2.295257,0 -4.1683715,-1.873105 -4.1683715,-4.168362 0,-2.295267 1.8731145,-4.1683719 4.1683715,-4.1683719 2.295257,0 4.168362,1.8731049 4.168362,4.1683719 0,2.295257 -1.873105,4.168362 -4.168362,4.168362 z M 19.172904,4.3287682 c -0.828669,0 -1.497858,0.6691894 -1.497858,1.4978584 0,0.8286691 0.669189,1.4978584 1.497858,1.4978584 0.828669,0 1.497859,-0.6660623 1.497859,-1.4978584 C 20.670971,5.629862 20.632404,5.4349737 20.557251,5.2531355 20.481993,5.071287 20.371712,4.9060743 20.232558,4.7669309 20.093405,4.6277979 19.928192,4.5174755 19.746406,4.4422907 19.564516,4.3670955 19.3697,4.3285285 19.172904,4.3287682 Z m 5.8257,8.1709998 c 0,-1.726133 0.01564,-3.4366415 -0.0813,-5.1596477 C 24.820362,5.3388064 24.363812,3.5626402 22.900352,2.0991794 21.433764,0.63259472 19.660725,0.17917203 17.659411,0.08223349 15.933277,-0.01470519 14.222779,9.3012308e-4 12.499773,9.3012308e-4 10.77364,9.3012308e-4 9.0631319,-0.01470519 7.3401257,0.08223349 5.3388118,0.17917203 3.5626457,0.63572177 2.0991849,2.0991794 0.63259695,3.5657673 0.17917216,5.3388064 0.08223352,7.3401203 -0.01470508,9.0662536 9.301213e-4,10.776762 9.301213e-4,12.499768 c 0,1.723006 -0.0156353013,3.436631 0.0813033987,5.159637 0.0969386,2.001314 0.55349043,3.777481 2.01695138,5.240941 1.4665878,1.466588 3.2396269,1.920011 5.2409408,2.01695 1.7261333,0.09694 3.4366413,0.0813 5.1596473,0.0813 1.726133,0 3.436631,0.01563 5.159638,-0.0813 2.001314,-0.09694 3.77748,-0.553489 5.240941,-2.01695 1.466587,-1.466588 1.92001,-3.239627 2.016949,-5.240941 0.100065,-1.723006 0.0813,-3.433504 0.0813,-5.159637 z m -2.751807,7.373591 c -0.228274,0.569124 -0.503455,0.994403 -0.94437,1.43219 -0.440914,0.440915 -0.863066,0.716095 -1.43219,0.94437 -1.64483,0.653554 -5.550519,0.506583 -7.373591,0.506583 -1.823072,0 -5.731898,0.146971 -7.3767279,-0.503456 C 4.5507944,22.024771 4.1255152,21.749591 3.6877278,21.308676 3.2468133,20.867762 2.9716326,20.44561 2.7433578,19.876486 2.0929307,18.228529 2.2399022,14.32284 2.2399022,12.499768 c 0,-1.823072 -0.1469715,-5.7318984 0.5034556,-7.3767283 C 2.9716326,4.5539161 3.2468133,4.1286368 3.6877278,3.6908494 4.1286423,3.253062 4.5507944,2.9747543 5.1199181,2.7464794 6.764748,2.0960524 10.673574,2.2430239 12.496646,2.2430239 c 1.823072,0 5.731888,-0.1469715 7.376718,0.5034555 0.569124,0.2282749 0.994403,0.5034555 1.432191,0.94437 0.440914,0.4409145 0.716095,0.8630667 0.94437,1.4321903 0.650427,1.6448299 0.503455,5.5536563 0.503455,7.3767283 0,1.823072 0.146972,5.728761 -0.506583,7.373591 z" />
	</svg>
	<svg viewBox="0 0 25 25" id="twitter" xmlns="http://www.w3.org/2000/svg">
		<path fill="#21a6df" d="M 25.000549,4.6428317 C 24.081201,5.0452863 23.080722,5.3349394 22.050104,5.4477513 23.120036,4.802706 23.921338,3.7836333 24.30353,2.5817307 23.299505,3.1878299 22.199645,3.6128407 21.05265,3.8379016 20.573266,3.3178276 19.993459,2.9035171 19.349415,2.62078 18.705267,2.338043 18.01075,2.1929391 17.309037,2.1945127 c -2.839279,0 -5.122737,2.335507 -5.122737,5.2015245 0,0.402465 0.04807,0.8049298 0.126181,1.1921488 C 8.0611206,8.362562 4.2694141,6.3014644 1.7486313,3.1457835 1.2893118,3.9419227 1.048619,4.8484023 1.0515806,5.7709414 c 0,1.8049818 0.904363,3.3965406 2.283427,4.3325736 C 2.5223083,10.071035 1.7286301,9.844344 1.0185338,9.441889 v 0.06403 c 0,2.527592 1.7606415,4.622195 4.1071693,5.103977 -0.4405802,0.11617 -0.89382,0.175507 -1.3490309,0.176862 -0.3334931,0 -0.6489664,-0.03358 -0.9674534,-0.07936 0.6489769,2.061129 2.5388235,3.558198 4.7892035,3.607002 -1.7606519,1.39946 -3.9659614,2.22266 -6.3605631,2.22266 -0.42964094,0 -0.82624023,-0.01523 -1.2378592,-0.06403 2.2714168,1.478715 4.9664648,2.33247 7.868825,2.33247 9.422172,0 14.577863,-7.921243 14.577863,-14.796624 0,-0.2256237 0,-0.4512478 -0.01502,-0.6768717 0.99756,-0.7408908 1.871858,-1.658633 2.568877,-2.6891766 z" />
	</svg>
	<svg viewBox="0 0 25 25" id="youtube" xmlns="http://www.w3.org/2000/svg">
		<path fill="#e42f08" d="M 24.473207,6.1723038 C 24.330976,5.6165501 24.052354,5.1098473 23.665285,4.7028833 23.278321,4.2959298 22.796467,4.0029946 22.267898,3.853406 20.321503,3.2995 12.500367,3.2995 12.500367,3.2995 c 0,0 -7.8212511,0 -9.7676249,0.553906 C 2.2042145,4.0029946 1.722329,4.2959298 1.3353128,4.7028833 0.94828624,5.1098473 0.6697055,5.6165501 0.52744335,6.1723038 0.16401204,8.259553 -0.01235117,10.378064 6.717211e-4,12.499974 -0.01235113,14.621905 0.16401204,16.740353 0.52744335,18.827623 0.6697055,19.383408 0.94828624,19.89008 1.3353128,20.297065 1.722329,20.704049 2.2042145,20.996958 2.7327421,21.146592 4.6791159,21.7005 12.500367,21.7005 12.500367,21.7005 c 0,0 7.821136,0 9.767531,-0.553908 0.528569,-0.149634 1.010423,-0.442543 1.397387,-0.849527 0.387069,-0.406985 0.665691,-0.913657 0.807922,-1.469442 0.363398,-2.08727 0.539831,-4.205718 0.526797,-6.327649 0.01303,-2.12191 -0.163399,-4.240421 -0.526797,-6.3276702 z M 10.000377,16.443066 V 8.556914 l 6.490902,3.94306 z" />
	</svg>
</svg>