<?xml version="1.0" encoding="utf-8"?>
<svg viewBox="0 0 50 50" xmlns="http://www.w3.org/2000/svg" xmlns:xlink="http://www.w3.org/1999/xlink">
	<style>:root>svg{display:none}:root>svg:target{display:block}</style>
<svg viewBox="0 0 50 50" id="ant-design_shop-twotone" xmlns="http://www.w3.org/2000/svg">
	<path d="m 38.167215,32.106012 c -3.333374,-3.65444 -8.000077,-5.813817 -13.000192,-5.647686 -5.000009,-0.166131 -9.833365,1.993246 -13.16674,5.647686 l -0.333306,0.498285 v 12.624308 c 0,1.494961 1.166676,2.823895 2.833311,2.823895 h 21.333576 c 1.499982,0 2.833311,-1.328934 2.833311,-2.823895 V 32.604297 C 38.48072,32.404126 38.330773,32.269022 38.167215,32.106012 Z M 35.167147,44.73032 H 15.000351 V 33.767103 c 2.666658,-2.657766 6.333339,-3.986597 10.166672,-3.986597 3.666786,-0.16613 7.333466,1.328831 10.000124,3.986597 z M 12.166204,16.658122 c 0.333411,0 0.650144,-0.03315 1.000023,-0.166129 v -0.996571 c 0,-0.830545 0,-1.66109 0.166653,-2.32561 -0.333306,0.16613 -0.833265,0.16613 -1.166676,0.16613 -2.1666456,0 -3.9999965,-1.827178 -3.9999965,-3.986596 0,-2.1594173 1.8333509,-3.9866167 3.9999965,-3.9866167 1.66674,0 3.166722,0.9966542 3.833438,2.4916355 C 16.666255,7.0238197 17.666277,6.1932745 18.499647,5.5288384 16.332949,2.0405538 11.832898,0.87779169 8.332871,3.0372028 4.8328435,5.1966203 3.6661572,9.681564 5.8328454,13.169812 c 1.3333498,2.15948 3.6667015,3.48831 6.3333586,3.48831 z m 2.833938,5.481453 C 14.333426,21.142899 13.833467,19.980095 13.50016,18.651264 H 12.166832 C 7.8334033,18.485134 3.6667009,19.980095 0.5000045,22.63786 L 0,23.13625 V 36.424972 H 3.3333634 V 24.46508 c 2.6666892,-1.82722 5.6667262,-2.823895 8.8334686,-2.657765 0.999918,0 1.999941,0.166129 2.83331,0.33226 z m 34.499794,0.497971 C 46.333214,19.813651 42.166575,18.31869 37.833177,18.484821 h -1.333328 c -0.333307,1.32883 -0.83337,2.491634 -1.499982,3.48831 0.999918,-0.16613 1.833288,-0.16613 2.83331,-0.16613 3.166722,-0.16613 6.333443,0.830545 8.833448,2.657765 V 36.424554 H 50 V 23.135832 Z M 34.00068,7.8537166 c 0.833265,-1.9933084 3.166617,-2.9899626 5.333316,-2.1594175 2.000045,0.8305452 3.000068,3.1560719 2.166698,5.3154789 -0.666612,1.494991 -2.166698,2.491667 -3.66668,2.491667 -0.333306,0 -0.83337,0 -1.166676,-0.166131 0.166653,0.830546 0.166653,1.661091 0.166653,2.325507 v 0.996674 c 0.364556,0.117187 0.666717,0.16613 1.000023,0.16613 4.166744,0 7.500119,-3.32218 7.500119,-7.308818 0,-4.1527259 -3.333375,-7.4749056 -7.333466,-7.4749056 -2.666658,0 -5.00001,1.3288713 -6.333338,3.6543977 0.833265,0.4983272 1.666635,1.1627633 2.333351,2.1594175 z M 24.833508,23.634744 c 4.500051,0 8.000078,-3.65444 8.000078,-8.139426 0,-4.484892 -3.66668,-7.9731817 -8.166731,-7.9731817 -4.50005,0 -8.000078,3.6543987 -8.000078,7.9731817 0,4.484986 3.666681,8.139426 8.166731,8.139426 z M 24.666855,10.844317 c 0.166653,0 0.166653,0 0,0 2.666658,0 4.833357,2.15947 4.833357,4.817131 0,2.657765 -2.166699,4.651116 -4.833357,4.651116 -2.666658,0 -4.666703,-2.159481 -4.666703,-4.651116 0,-2.657661 2.166699,-4.817131 4.666703,-4.817131 z" />
</svg>
<svg viewBox="0 0 50 50" id="carbon_notebook" xmlns="http://www.w3.org/2000/svg">
	<path opacity="0.15" d="M 45.469064,14.627917 H 4.5315731 c -0.01875,0 -0.03125,0.0124 -0.03125,0.03083 v 5.630521 c 0,3.691876 3.0625001,6.686251 6.8312399,6.686251 2.54375,0 4.7625,-1.35823 5.94375,-3.377084 0.18125,-0.314896 0.525,-0.512396 0.89375,-0.512396 0.36875,0 0.70625,0.1975 0.89375,0.512396 1.175,2.018854 3.39375,3.377084 5.9375,3.377084 2.55,0 4.775,-1.36448 5.94375,-3.38948 0.18125,-0.308645 0.512501,-0.5 0.868751,-0.5 h 0.0375 c 0.3625,0 0.6875,0.191355 0.86875,0.5 1.175,2.025 3.4,3.38948 5.95,3.38948 3.76875,0 6.83125,-2.994375 6.83125,-6.686251 V 14.65875 c 0,-0.01844 -0.0125,-0.03083 -0.03125,-0.03083 z" />
	<path fill="#00a0c1" d="M 48.125002,10.189219 V 2.2806146 C 48.125002,1.1878511 47.231252,0.305 46.125001,0.305 H 3.8750314 c -1.1062396,0 -1.9999897,0.8828511 -1.9999897,1.9756146 V 10.189219 C 0.83128857,10.250959 3.8724585e-5,11.109167 3.8724585e-5,12.158646 V 20.28948 C -0.0039638,21.783855 0.30234688,23.263126 0.90003857,24.635834 1.1687917,25.265626 1.5000417,25.85823 1.8750417,26.420105 v 21.29948 c 0,1.086667 0.8937501,1.975625 1.9999897,1.975625 H 46.125001 c 1.106251,0 2.000001,-0.882813 2.000001,-1.975625 v -21.29948 c 0.380937,-0.563229 0.707291,-1.160625 0.975,-1.784271 0.59375,-1.376667 0.9,-2.839896 0.9,-4.346354 v -8.130834 c 0,-1.049479 -0.83125,-1.907687 -1.875,-1.969427 z M 6.3750315,4.7501251 H 43.625001 V 10.183052 H 6.3750315 Z M 29.000001,45.256251 h -8 v -6.426875 h 8 z m 14.65,0 h -10.65 v -8.4025 c 0,-1.092708 -0.89375,-1.975625 -2,-1.975625 h -12 c -1.10625,0 -2,0.882917 -2,1.975625 v 8.4025 H 6.3750315 V 30.303438 c 0.18125,0.08636 0.36875,0.172813 0.5625,0.246875 1.39375,0.580417 2.8750001,0.870521 4.3999685,0.870521 1.525,0 3,-0.290104 4.400001,-0.870521 0.8625,-0.35802 1.675,-0.814895 2.41875,-1.364375 0.0125,-0.0061 0.025,-0.0061 0.0375,0 0.746041,0.551771 1.558541,1.010105 2.41875,1.364375 1.39375,0.580417 2.875,0.870521 4.4,0.870521 1.525,0 3,-0.290104 4.4,-0.870521 0.8625,-0.35802 1.675,-0.814895 2.41875,-1.364375 0.0125,-0.0061 0.025,-0.0061 0.0375,0 0.746042,0.551771 1.558542,1.010105 2.41875,1.364375 1.39375,0.580417 2.875,0.870521 4.4,0.870521 1.525,0 3,-0.290104 4.4,-0.870521 0.1875,-0.08021 0.375,-0.16052 0.5625,-0.246875 z m 1.85,-24.966771 c 0,3.691979 -3.0625,6.68625 -6.83125,6.68625 -2.55,0 -4.775,-1.364375 -5.95,-3.389375 -0.18125,-0.30875 -0.50625,-0.500104 -0.86875,-0.500104 h -0.0375 c -0.35625,0 -0.6875,0.191354 -0.86875,0.500104 -0.599583,1.032917 -1.465417,1.890729 -2.509375,2.486042 -1.043958,0.595312 -2.228958,0.906979 -3.434375,0.903333 -2.54375,0 -4.7625,-1.358229 -5.9375,-3.377083 -0.1875,-0.314792 -0.525,-0.512396 -0.89375,-0.512396 -0.36875,0 -0.7125,0.197604 -0.89375,0.512396 -0.603125,1.029062 -1.47,1.882916 -2.513438,2.475833 -1.043438,0.592813 -2.226563,0.903646 -3.430313,0.90125 -3.7687185,0 -6.8312186,-2.994271 -6.8312186,-6.68625 v -5.630417 c 0,-0.01854 0.0125,-0.03094 0.03125,-0.03094 H 45.468751 c 0.01875,0 0.03125,0.0124 0.03125,0.03094 z" />
</svg>
<svg viewBox="0 0 50 50" id="clarity_users-line" xmlns="http://www.w3.org/2000/svg">
	<path d="M 3.5722656 5.2578125 C 2.6253468 5.2587628 1.7164527 5.6375813 1.046875 6.3105469 C 0.37731186 6.9835061 0.00094549175 7.8959365 0 8.8476562 L 0 41.152344 C 0.00094549175 42.104085 0.37731186 43.016515 1.046875 43.689453 C 1.7164527 44.362391 2.6253468 44.74125 3.5722656 44.742188 L 46.427734 44.742188 C 47.374465 44.740788 48.283631 44.362287 48.953125 43.689453 C 49.622619 43.016619 49.998645 42.103876 50 41.152344 L 50 8.8476562 C 49.999062 7.8959365 49.622723 6.9835061 48.953125 6.3105469 C 48.283631 5.6375813 47.374674 5.2587628 46.427734 5.2578125 L 3.5722656 5.2578125 z M 3.5722656 8.8476562 L 23.214844 8.8476562 L 23.214844 41.152344 L 3.5722656 41.152344 L 3.5722656 8.8476562 z M 26.785156 8.8476562 L 46.427734 8.8476562 L 46.431641 41.152344 L 26.785156 41.152344 L 26.785156 8.8476562 z M 30.357422 14.230469 L 30.357422 17.820312 L 42.857422 17.820312 L 42.857422 14.230469 L 30.357422 14.230469 z M 30.357422 23.205078 L 30.357422 26.794922 L 42.857422 26.794922 L 42.857422 23.205078 L 30.357422 23.205078 z M 30.357422 32.177734 L 30.357422 35.767578 L 42.857422 35.767578 L 42.857422 32.177734 L 30.357422 32.177734 z " />
</svg>
<svg viewBox="0 0 50 50" id="fa-solid_award" xmlns="http://www.w3.org/2000/svg">
	<path d="m 15.775737,35.413201 c -0.844839,-0.848629 -0.40443,-0.609363 -2.442173,-1.157269 -0.924566,-0.248953 -1.737332,-0.727485 -2.472319,-1.300703 L 6.4503567,43.818244 c -0.426798,1.051751 0.37041,2.194332 1.500109,2.151312 l 5.1225503,-0.196246 3.523268,3.73826 c 0.777715,0.82415 2.142689,0.56728 2.569557,-0.484366 l 5.060322,-12.462671 c -1.053939,0.58978 -2.2235,0.935502 -3.432853,0.935502 -1.895798,0 -3.67691,-0.741235 -5.017573,-2.086834 z M 43.549656,43.818244 39.1388,32.955229 c -0.734985,0.574155 -1.547783,1.05175 -2.472349,1.300703 -2.048399,0.550823 -1.599241,0.310619 -2.442141,1.157269 -1.340705,1.345599 -3.122754,2.086834 -5.018552,2.086834 -1.209458,0 -2.379019,-0.346659 -3.432854,-0.935502 l 5.060323,12.462671 c 0.426763,1.051646 1.792779,1.308516 2.569535,0.484366 l 3.524205,-3.73826 5.122612,0.196246 c 1.129667,0.04302 1.92684,-1.100499 1.500077,-2.151312 z M 31.902686,33.203245 c 1.485493,-1.518512 1.655594,-1.387681 3.771179,-1.966732 1.350392,-0.370097 2.406205,-1.449243 2.767866,-2.830049 0.727174,-2.773383 0.538531,-2.438389 2.522869,-4.467724 0.988731,-1.01071 1.374662,-2.484327 1.013002,-3.865133 -0.726236,-2.771404 -0.727174,-2.384745 0,-5.159065 C 42.339262,13.533736 41.953332,12.060119 40.9646,11.04941 38.980262,9.0201365 39.168905,9.3541195 38.441731,6.5817165 38.08007,5.2008785 37.024257,4.1217955 35.673865,3.7516885 32.963291,3.0085365 33.289952,3.2028765 31.303739,1.1726345 30.315008,0.16191754 28.873263,-0.23358246 27.522872,0.13652754 c -2.709533,0.742173 -2.33131,0.743149 -5.045739,0 -1.350391,-0.37011 -2.792136,0.02441 -3.780867,1.03610696 -1.984297,2.029263 -1.657677,1.835902 -4.369106,2.579054 -1.350392,0.370107 -2.406205,1.44919 -2.767865,2.830028 -0.726237,2.772403 -0.538605,2.43842 -2.5228803,4.4676935 -0.988732,1.010709 -1.375662,2.484326 -1.013033,3.865132 0.726236,2.769529 0.727205,2.382766 0,5.158128 -0.36166,1.380806 0.0243,2.854423 1.013033,3.86607 1.9842753,2.029335 1.7956643,1.694341 2.5228803,4.467724 0.36166,1.380806 1.417473,2.459952 2.767865,2.830049 2.175793,0.595717 2.338144,0.501969 3.770159,1.966732 1.286226,1.315391 3.289938,1.550803 4.835742,0.568322 0.618218,-0.394159 1.335289,-0.603426 2.067462,-0.603426 0.732174,0 1.449244,0.209267 2.067358,0.603426 1.544866,0.982481 3.548579,0.747069 4.834805,-0.568322 z M 15.828236,17.184081 c 0,-5.178648 4.106548,-9.3768055 9.171766,-9.3768055 5.065218,0 9.171809,4.1981575 9.171809,9.3768055 0,5.178544 -4.106591,9.37669 -9.171809,9.37669 -5.065218,0 -9.171766,-4.198146 -9.171766,-9.37669 z" />
</svg>
</svg>